<?xml version="1.0" encoding="UTF-8" standalone="no"?>
<svg
   xmlns:osb="http://www.openswatchbook.org/uri/2009/osb"
   xmlns:dc="http://purl.org/dc/elements/1.1/"
   xmlns:cc="http://creativecommons.org/ns#"
   xmlns:rdf="http://www.w3.org/1999/02/22-rdf-syntax-ns#"
   xmlns:svg="http://www.w3.org/2000/svg"
   xmlns="http://www.w3.org/2000/svg"
   xmlns:sodipodi="http://sodipodi.sourceforge.net/DTD/sodipodi-0.dtd"
   xmlns:inkscape="http://www.inkscape.org/namespaces/inkscape"
   version="1.1"
   id="svg138"
   sodipodi:docname="lazytabs.ink.svg"
   width="168"
   height="168"
   inkscape:version="1.0 (4035a4f, 2020-05-01)"
   inkscape:export-filename="/Users/jman/workspace/extensions/lazy_tab/source/ico_48.png"
   inkscape:export-xdpi="27.43"
   inkscape:export-ydpi="27.43">
  <metadata
     id="metadata142">
    <rdf:RDF>
      <cc:Work
         rdf:about="">
        <dc:format>image/svg+xml</dc:format>
        <dc:type
           rdf:resource="http://purl.org/dc/dcmitype/StillImage" />
        <dc:title />
      </cc:Work>
    </rdf:RDF>
  </metadata>
  <sodipodi:namedview
     inkscape:guide-bbox="true"
     showguides="true"
     inkscape:snap-bbox="false"
     inkscape:snap-smooth-nodes="true"
     inkscape:object-paths="true"
     inkscape:snap-intersection-paths="true"
     inkscape:document-rotation="0"
     pagecolor="#ffffff"
     bordercolor="#666666"
     borderopacity="1"
     objecttolerance="10"
     gridtolerance="10"
     guidetolerance="10"
     inkscape:pageopacity="0"
     inkscape:pageshadow="2"
     inkscape:window-width="1569"
     inkscape:window-height="947"
     id="namedview140"
     showgrid="false"
     fit-margin-top="0"
     fit-margin-left="0"
     fit-margin-right="0"
     fit-margin-bottom="0"
     inkscape:zoom="0.96307648"
     inkscape:cx="-166.62155"
     inkscape:cy="302.34974"
     inkscape:window-x="519"
     inkscape:window-y="1488"
     inkscape:window-maximized="0"
     inkscape:current-layer="layer3">
    <sodipodi:guide
       inkscape:color="rgb(0,0,255)"
       inkscape:locked="false"
       inkscape:label=""
       id="guide899"
       orientation="-1,0"
       position="135,142.75966" />
    <sodipodi:guide
       inkscape:color="rgb(0,0,255)"
       inkscape:locked="false"
       inkscape:label=""
       id="guide935"
       orientation="0,1"
       position="138.76569,33" />
  </sodipodi:namedview>
  <defs
     id="defs118">
    <linearGradient
       osb:paint="solid"
       id="linearGradient860">
      <stop
         id="stop858"
         offset="0"
         style="stop-color:#000000;stop-opacity:1;" />
    </linearGradient>
    <clipPath
       id="a"
       clipPathUnits="userSpaceOnUse">
      <path
         d="M 0,128 H 128 V 0 H 0 Z"
         id="path103" />
    </clipPath>
    <clipPath
       id="b"
       clipPathUnits="userSpaceOnUse">
      <path
         d="M 0,128 H 128 V 0 H 0 Z"
         id="path106" />
    </clipPath>
    <clipPath
       id="c"
       clipPathUnits="userSpaceOnUse">
      <path
         d="m 24.667,117.333 h 80.002 V 37.331 H 24.667 Z"
         id="path109" />
    </clipPath>
    <clipPath
       id="d"
       clipPathUnits="userSpaceOnUse">
      <path
         d="M 0,128 H 128 V 0 H 0 Z"
         id="path112" />
    </clipPath>
    <clipPath
       id="e"
       clipPathUnits="userSpaceOnUse">
      <path
         d="M 0,128 H 128 V 0 H 0 Z"
         id="path115" />
    </clipPath>
  </defs>
  <g
     style="display:inline;mix-blend-mode:normal"
     inkscape:label="Layer 1"
     id="layer1"
     inkscape:groupmode="layer">
    <path
       d="M 62.576172,29 C 65.026824,29 67,30.973176 67,33.423828 V 45.576172 C 67,45.721325 66.970563,45.85851 66.957031,46 h 71.619139 c 0.12975,0 0.25206,0.02234 0.37891,0.03125 C 138.97064,45.879682 139,45.731986 139,45.576172 V 33.423828 C 139,30.973175 137.02682,29 134.57617,29 Z"
       style="fill:#000000;fill-opacity:1;stroke:#000000;stroke-width:3.99999;stroke-linecap:butt;stroke-linejoin:round;stroke-miterlimit:4;stroke-dasharray:none;stroke-opacity:1;paint-order:normal"
       id="rect882-2" />
  </g>
  <g
     style="display:inline;mix-blend-mode:normal"
     inkscape:label="Layer 2"
     id="layer2"
     inkscape:groupmode="layer">
    <path
       d="M 33.423828 29 C 30.973176 29 29 30.973176 29 33.423828 L 29 45.576172 C 29 45.731986 29.029352 45.879682 29.044922 46.03125 C 26.775875 46.190649 25 47.728857 25 49.636719 L 25 139.36328 C 25 141.37781 26.973174 143 29.423828 143 L 113.4375 143 A 23 23.000006 0 0 1 112 135 A 23 23.000006 0 0 1 135 112 A 23 23.000006 0 0 1 143 113.4375 L 143 49.636719 C 143 47.622198 141.02682 46 138.57617 46 L 66.957031 46 C 66.970563 45.85851 67 45.721325 67 45.576172 L 67 33.423828 C 67 30.973176 65.026824 29 62.576172 29 L 33.423828 29 z "
       style="fill:none;fill-opacity:1;fill-rule:evenodd;stroke:#000000;stroke-width:4;stroke-linecap:butt;stroke-linejoin:round;stroke-miterlimit:4;stroke-dasharray:none;stroke-opacity:1;paint-order:normal"
       id="rect33" />
  </g>
  <g
     inkscape:label="Layer 3"
     id="layer3"
     inkscape:groupmode="layer">
    <ellipse
       ry="23.000006"
       rx="23"
       cy="135"
       cx="135"
       id="path864"
       style="fill:none;stroke:#000000;stroke-width:3.99999;stroke-linecap:butt;stroke-linejoin:round;stroke-miterlimit:4;stroke-dasharray:none;stroke-opacity:1;paint-order:normal" />
    <rect
       ry="0.48159274"
       rx="0.4815928"
       y="122.5"
       x="128"
       height="25"
       width="4"
       id="rect937"
       style="fill:#000000;fill-opacity:1;fill-rule:nonzero;stroke:none;stroke-width:0;stroke-linecap:butt;stroke-linejoin:round;stroke-miterlimit:4;stroke-dasharray:none;stroke-opacity:1;paint-order:normal" />
    <rect
       style="fill:#000000;fill-opacity:1;fill-rule:nonzero;stroke:none;stroke-width:0;stroke-linecap:butt;stroke-linejoin:round;stroke-miterlimit:4;stroke-dasharray:none;stroke-opacity:1;paint-order:normal"
       id="rect939"
       width="4"
       height="25"
       x="138"
       y="122.5"
       rx="0.4815928"
       ry="0.48159274" />
  </g>
</svg>
