<svg xmlns="http://www.w3.org/2000/svg"><defs><clipPath id="a" clipPathUnits="userSpaceOnUse"><path d="M0 128h128V0H0z"/></clipPath><clipPath id="b" clipPathUnits="userSpaceOnUse"><path d="M0 128h128V0H0z"/></clipPath><clipPath id="c" clipPathUnits="userSpaceOnUse"><path d="M24.667 117.333h80.002V37.331H24.667z"/></clipPath><clipPath id="d" clipPathUnits="userSpaceOnUse"><path d="M0 128h128V0H0z"/></clipPath><clipPath id="e" clipPathUnits="userSpaceOnUse"><path d="M0 128h128V0H0z"/></clipPath></defs><g clip-path="url(#a)" transform="matrix(1.33333 0 0 -1.33333 0 170.667)"><path d="M83 17c-12.705-.391-38.25-11.5-58.333 1.25C11.25 29.664 4.921 27.823 4.921 32.073 4.917 34.823 15 40 23.419 44.003c3.659 1.74 8.627 4.236 12.518 1.383 5.538-4.074 14.75-9.998 28.063-10.553 7.451-.311 20.5 4.071 26.91 4.943.097.014.194.038.291.057 6.527 1.244 10.649 1.984 13.468-.333.033-.027 9.85-7.07 15.238-11.408 1.654-1.331 1.361-3.969-.575-4.842-2.64-1.189-3.732-2.468-7.637-3.5C103.594 17.607 99.25 17.5 83 17" fill-rule="evenodd"/></g><g clip-path="url(#b)" transform="matrix(1.33333 0 0 -1.33333 0 170.667)"><g clip-path="url(#c)"><path d="M101.522 92.91h-28.18c5.43-3.062 9.1-8.88 9.1-15.559 0-4.124-1.401-7.919-3.75-10.94L61.955 37.423c.896-.06 1.8-.093 2.712-.093 22.091 0 40 17.91 40 40.001a39.88 39.88 0 01-3.146 15.578M64.59 59.5c-7.406 0-13.758 4.51-16.462 10.932l-16.77 29.05a39.817 39.817 0 01-6.69-22.15c0-20.303 15.126-37.07 34.723-39.654L73.3 61.77a17.76 17.76 0 00-8.71-2.27m0 35.705v.054h35.844c-6.574 13.09-20.12 22.075-35.766 22.075-12.975 0-24.504-6.178-31.813-15.752l13.886-24.05c.097 9.776 8.05 17.673 17.848 17.673M49.79 77.294c0-8.272 6.705-14.977 14.975-14.977 8.271 0 14.976 6.705 14.976 14.976 0 8.27-6.705 14.975-14.976 14.975-8.27 0-14.975-6.705-14.975-14.975" fill-rule="evenodd"/></g></g><g clip-path="url(#d)" transform="matrix(1.33333 0 0 -1.33333 0 170.667)"><path d="M116.83 48.287a17.908 17.908 0 01-3.803-2.52c-3.632-3.139-6.02-10.467-6.143-12.36l3.032-.403a14.937 14.937 0 005.52 10.816 15 15 0 002.723 1.76c1.528.857.447 3.295-1.329 2.707" fill-rule="evenodd"/></g><g clip-path="url(#e)" transform="matrix(1.33333 0 0 -1.33333 0 170.667)"><path d="M30.166 46.833C34.81 49.634 44 35.333 63.661 35c16.172 0 26.005 7.5 28.588 9.5 2.585 2 11.3-4.204 14.635-6.5 4.115-2.833 15.852-7.977 17.865-10 1.413-1.418 1-5.25-7.25-7.25s-30.165-4.5-51-4.5c-13.286 0-26.663.948-39.793 3.002-5.063.792-10.001 1.405-14.751 3.37-2.544 1.054-9.658 3.665-9.058 7.433.458 2.867 5.873 5.699 8.01 7.014 6.101 3.758 13.331 5.843 19.26 9.764" fill-rule="evenodd"/></g></svg>