<svg xmlns="http://www.w3.org/2000/svg" width="48" height="48" viewBox="0 0 48 48">
  <metadata><?xpacket begin="﻿" id="W5M0MpCehiHzreSzNTczkc9d"?>
<x:xmpmeta xmlns:x="adobe:ns:meta/" x:xmptk="Adobe XMP Core 5.6-c138 79.159824, 2016/09/14-01:09:01        ">
   <rdf:RDF xmlns:rdf="http://www.w3.org/1999/02/22-rdf-syntax-ns#">
      <rdf:Description rdf:about=""/>
   </rdf:RDF>
</x:xmpmeta>
                                                                                                    
                                                                                                    
                                                                                                    
                                                                                                    
                                                                                                    
                                                                                                    
                                                                                                    
                                                                                                    
                                                                                                    
                                                                                                    
                                                                                                    
                                                                                                    
                                                                                                    
                                                                                                    
                                                                                                    
                                                                                                    
                                                                                                    
                                                                                                    
                                                                                                    
                                                                                                    
                           
<?xpacket end="w"?></metadata>
<defs>
    <style>
      .cls-1 {
        fill-rule: evenodd;
      }
    </style>
  </defs>
  <path class="cls-1" d="M11,31s5.992,5,12,5c5.467,0,11-5,11-5s5.25,3.25,6,3,3.25-3.75,4-4a0.736,0.736,0,0,1,1,1c-0.312.688-3.312,3.188-3,4s6.625,2.125,5,4-9.022,2.635-12,3c-3.062.375-10.5,0-14,0S0.187,39.981,1,37C1.75,34.25,11,31,11,31Z"/>
  <path id="big" class="cls-1" d="M22,34c-0.342,0-.681-0.013-1.017-0.035L27.259,23.1a6.691,6.691,0,0,0-2.006-9.937H35.821A15.009,15.009,0,0,1,22,34ZM21.971,12.3a6.694,6.694,0,0,0-6.693,6.627L10.071,9.907a15,15,0,0,1,25.342,2.371H21.971V12.3Zm0.066,12.333a5.616,5.616,0,1,1,5.616-5.616A5.616,5.616,0,0,1,22.037,24.631Zm-0.066,1.057a6.662,6.662,0,0,0,3.266-.851l-5.216,9.034A15,15,0,0,1,9.509,10.694L15.8,21.588A6.7,6.7,0,0,0,21.971,25.688Z"/>
</svg>
