<?xml version="1.0" encoding="UTF-8" standalone="no"?>
<svg
   xmlns:dc="http://purl.org/dc/elements/1.1/"
   xmlns:cc="http://creativecommons.org/ns#"
   xmlns:rdf="http://www.w3.org/1999/02/22-rdf-syntax-ns#"
   xmlns:svg="http://www.w3.org/2000/svg"
   xmlns="http://www.w3.org/2000/svg"
   xmlns:sodipodi="http://sodipodi.sourceforge.net/DTD/sodipodi-0.dtd"
   xmlns:inkscape="http://www.inkscape.org/namespaces/inkscape"
   inkscape:export-ydpi="73.139999"
   inkscape:export-xdpi="73.139999"
   inkscape:export-filename="/Users/jman/workspace/extensions/lazy_tab/source/ico_128.png"
   inkscape:version="1.0 (4035a4f, 2020-05-01)"
   height="168"
   width="168"
   sodipodi:docname="lazytabs.ink.svg"
   id="svg138"
   version="1.1">
  <metadata
     id="metadata142">
    <rdf:RDF>
      <cc:Work
         rdf:about="">
        <dc:format>image/svg+xml</dc:format>
        <dc:type
           rdf:resource="http://purl.org/dc/dcmitype/StillImage" />
        <dc:title></dc:title>
      </cc:Work>
    </rdf:RDF>
  </metadata>
  <sodipodi:namedview
     inkscape:current-layer="svg138"
     inkscape:window-maximized="0"
     inkscape:window-y="1535"
     inkscape:window-x="687"
     inkscape:cy="74.121816"
     inkscape:cx="91.063874"
     inkscape:zoom="3.8430545"
     fit-margin-bottom="0"
     fit-margin-right="0"
     fit-margin-left="0"
     fit-margin-top="0"
     showgrid="false"
     id="namedview140"
     inkscape:window-height="840"
     inkscape:window-width="1336"
     inkscape:pageshadow="2"
     inkscape:pageopacity="0"
     guidetolerance="10"
     gridtolerance="10"
     objecttolerance="10"
     borderopacity="1"
     bordercolor="#666666"
     pagecolor="#ffffff" />
  <defs
     id="defs118">
    <clipPath
       clipPathUnits="userSpaceOnUse"
       id="a">
      <path
         id="path103"
         d="M 0,128 H 128 V 0 H 0 Z" />
    </clipPath>
    <clipPath
       clipPathUnits="userSpaceOnUse"
       id="b">
      <path
         id="path106"
         d="M 0,128 H 128 V 0 H 0 Z" />
    </clipPath>
    <clipPath
       clipPathUnits="userSpaceOnUse"
       id="c">
      <path
         id="path109"
         d="m 24.667,117.333 h 80.002 V 37.331 H 24.667 Z" />
    </clipPath>
    <clipPath
       clipPathUnits="userSpaceOnUse"
       id="d">
      <path
         id="path112"
         d="M 0,128 H 128 V 0 H 0 Z" />
    </clipPath>
    <clipPath
       clipPathUnits="userSpaceOnUse"
       id="e">
      <path
         id="path115"
         d="M 0,128 H 128 V 0 H 0 Z" />
    </clipPath>
  </defs>
  <g
     id="g122"
     transform="matrix(1.33333,0,0,-1.33333,-1.2406088,170.3171)"
     clip-path="url(#a)">
    <path
       id="path120"
       fill-rule="evenodd"
       d="M 83,17 C 70.295,16.609 44.75,5.5 24.667,18.25 11.25,29.664 4.921,27.823 4.921,32.073 4.917,34.823 15,40 23.419,44.003 c 3.659,1.74 8.627,4.236 12.518,1.383 5.538,-4.074 14.75,-9.998 28.063,-10.553 7.451,-0.311 20.5,4.071 26.91,4.943 0.097,0.014 0.194,0.038 0.291,0.057 6.527,1.244 10.649,1.984 13.468,-0.333 0.033,-0.027 9.85,-7.07 15.238,-11.408 1.654,-1.331 1.361,-3.969 -0.575,-4.842 -2.64,-1.189 -3.732,-2.468 -7.637,-3.5 C 103.594,17.607 99.25,17.5 83,17" />
  </g>
  <g
     id="g128"
     transform="matrix(1.33333,0,0,-1.33333,-1.2406088,170.3171)"
     clip-path="url(#b)">
    <g
       id="g126"
       clip-path="url(#c)">
      <path
         id="path124"
         fill-rule="evenodd"
         d="m 101.522,92.91 h -28.18 c 5.43,-3.062 9.1,-8.88 9.1,-15.559 0,-4.124 -1.401,-7.919 -3.75,-10.94 L 61.955,37.423 c 0.896,-0.06 1.8,-0.093 2.712,-0.093 22.091,0 40,17.91 40,40.001 a 39.88,39.88 0 0 1 -3.146,15.578 M 64.59,59.5 c -7.406,0 -13.758,4.51 -16.462,10.932 l -16.77,29.05 a 39.817,39.817 0 0 1 -6.69,-22.15 c 0,-20.303 15.126,-37.07 34.723,-39.654 L 73.3,61.77 A 17.76,17.76 0 0 0 64.59,59.5 m 0,35.705 v 0.054 h 35.844 c -6.574,13.09 -20.12,22.075 -35.766,22.075 -12.975,0 -24.504,-6.178 -31.813,-15.752 l 13.886,-24.05 c 0.097,9.776 8.05,17.673 17.848,17.673 M 49.79,77.294 c 0,-8.272 6.705,-14.977 14.975,-14.977 8.271,0 14.976,6.705 14.976,14.976 0,8.27 -6.705,14.975 -14.976,14.975 -8.27,0 -14.975,-6.705 -14.975,-14.975" />
    </g>
  </g>
  <g
     id="g132"
     transform="matrix(1.33333,0,0,-1.33333,-1.2406088,170.3171)"
     clip-path="url(#d)">
    <path
       id="path130"
       fill-rule="evenodd"
       d="m 116.83,48.287 a 17.908,17.908 0 0 1 -3.803,-2.52 c -3.632,-3.139 -6.02,-10.467 -6.143,-12.36 l 3.032,-0.403 a 14.937,14.937 0 0 0 5.52,10.816 15,15 0 0 0 2.723,1.76 c 1.528,0.857 0.447,3.295 -1.329,2.707" />
  </g>
  <g
     id="g136"
     transform="matrix(1.33333,0,0,-1.33333,-1.2406088,170.3171)"
     clip-path="url(#e)">
    <path
       id="path134"
       fill-rule="evenodd"
       d="M 30.166,46.833 C 34.81,49.634 44,35.333 63.661,35 c 16.172,0 26.005,7.5 28.588,9.5 2.585,2 11.3,-4.204 14.635,-6.5 4.115,-2.833 15.852,-7.977 17.865,-10 1.413,-1.418 1,-5.25 -7.25,-7.25 -8.25,-2 -30.165,-4.5 -51,-4.5 -13.286,0 -26.663,0.948 -39.793,3.002 -5.063,0.792 -10.001,1.405 -14.751,3.37 -2.544,1.054 -9.658,3.665 -9.058,7.433 0.458,2.867 5.873,5.699 8.01,7.014 6.101,3.758 13.331,5.843 19.26,9.764" />
  </g>
</svg>
