<svg xmlns="http://www.w3.org/2000/svg" width="262.428" height="115.748" viewBox="9.505 23.632 262.428 115.748" enable-background="new 9.505 23.632 262.428 115.748"><path fill="#0095DA" d="M52.931 47.658c-.688-2.823 1.056-5.672 3.879-6.384 2.823-.687 5.701 1.029 6.385 3.88.688 2.823-1.058 5.671-3.881 6.384-2.824.688-5.672-1.055-6.383-3.88zm-15.198 11.682c-2.067-2.068-2.037-5.43.032-7.466 2.072-2.064 5.413-2.063 7.48.005 2.041 2.067 2.039 5.4-.033 7.466-2.071 2.065-5.409 2.062-7.479-.005zm-6.842 17.937c-2.8-.759-4.468-3.64-3.736-6.467.759-2.824 3.644-4.493 6.473-3.733 2.829.759 4.499 3.641 3.738 6.466-.732 2.799-3.646 4.494-6.475 3.734zm2.861 18.673c-2.787.814-5.711-.742-6.555-3.539-.814-2.851.769-5.757 3.585-6.572 2.786-.871 5.713.742 6.554 3.539.815 2.794-.794 5.753-3.584 6.572zm11.449 15.25c-2.08 2.053-5.417 2.051-7.476-.025-2.054-2.078-2.056-5.411.025-7.467 2.051-2.054 5.417-2.054 7.474.024 2.055 2.079 2.028 5.411-.023 7.468zm17.998 6.743c-.708 2.858-3.548 4.578-6.378 3.868-2.858-.652-4.575-3.523-3.893-6.381.709-2.805 3.549-4.577 6.378-3.868 2.83.709 4.575 3.58 3.893 6.381zm18.694-2.601c.729 2.801-.944 5.68-3.774 6.461-2.829.727-5.711-.971-6.439-3.771-.757-2.851.944-5.73 3.748-6.457 2.828-.728 5.71.97 6.465 3.767zm15.235-11.633c2.048 2.086 2.013 5.42-.044 7.465-2.086 2.102-5.422 2.068-7.469-.018-2.075-2.087-2.042-5.42.018-7.467 2.086-2.043 5.42-2.013 7.495.02zm6.857-17.908c2.825.797 4.458 3.687 3.687 6.482-.771 2.852-3.692 4.479-6.521 3.68-2.799-.797-4.456-3.686-3.657-6.481.771-2.797 3.693-4.48 6.491-3.681zm-2.645-18.76c2.832-.677 5.696 1.07 6.375 3.899.678 2.831-1.07 5.696-3.9 6.374-2.833.678-5.669-1.07-6.373-3.9-.678-2.832 1.07-5.669 3.898-6.373zm-11.741-15.162c2.081-2.056 5.418-2.075 7.474-.023 2.088 2.053 2.105 5.417.024 7.474-2.052 2.084-5.39 2.075-7.473.022-2.058-2.052-2.077-5.388-.025-7.473zm-17.957-6.732c.698-2.833 3.564-4.565 6.398-3.87 2.836.668 4.569 3.535 3.874 6.367-.67 2.836-3.535 4.569-6.371 3.9-2.836-.695-4.567-3.561-3.901-6.397z"/><path fill="#00AEEF" d="M58.608 54.595c0-4.894 3.952-8.824 8.837-8.824 4.859 0 8.81 3.93 8.81 8.824 0 4.866-3.951 8.822-8.81 8.822-4.885 0-8.837-3.957-8.837-8.822zm-12.375 8.132c-2.459-4.222-1.021-9.618 3.195-12.079 4.22-2.434 9.612-.996 12.046 3.225 2.46 4.195 1.023 9.589-3.197 12.052-4.219 2.433-9.611.996-12.044-3.198zm-6.424 12.802c-4.232-2.426-5.71-7.793-3.283-12.019 2.429-4.257 7.828-5.706 12.062-3.281 4.231 2.426 5.682 7.792 3.254 12.02-2.4 4.256-7.8 5.704-12.033 3.28zm.714 14.832c-4.885-.012-8.827-3.97-8.844-8.827.011-4.861 3.943-8.802 8.828-8.819 4.858-.017 8.801 3.943 8.819 8.801.016 4.858-3.944 8.8-8.803 8.845zm8.131 12.402c-4.215 2.44-9.612 1.017-12.082-3.146-2.469-4.215-1.043-9.613 3.144-12.109 4.215-2.443 9.61-1.018 12.079 3.145 2.47 4.215 1.074 9.614-3.141 12.11zm12.87 6.341c-2.416 4.238-7.807 5.757-12.037 3.338-4.232-2.365-5.72-7.764-3.333-12.002 2.389-4.238 7.778-5.757 12.009-3.338 4.261 2.363 5.748 7.762 3.361 12.002zm14.736-.648c.005 4.869-3.938 8.805-8.797 8.836-4.886.031-8.845-3.947-8.848-8.812-.002-4.866 3.941-8.856 8.799-8.835 4.886-.031 8.843 3.947 8.846 8.811zm12.339-8.196c2.502 4.214 1.118 9.615-3.062 12.066-4.18 2.51-9.607 1.149-12.083-3.062-2.479-4.157-1.122-9.614 3.059-12.066 4.18-2.51 9.606-1.151 12.086 3.062zm6.37-12.804c4.261 2.354 5.789 7.744 3.411 11.984-2.378 4.239-7.761 5.77-11.995 3.415-4.261-2.354-5.786-7.743-3.409-11.983 2.377-4.297 7.731-5.825 11.993-3.416zm-.627-14.72c4.886.025 8.822 3.963 8.826 8.821.005 4.859-3.96 8.822-8.819 8.826-4.888 0-8.824-3.936-8.827-8.82-.004-4.887 3.961-8.822 8.82-8.827zm-8.225-12.384c4.179-2.516 9.585-1.167 12.101 3.011s1.169 9.584-3.011 12.102c-4.179 2.515-9.583 1.167-12.1-3.011-2.517-4.18-1.168-9.586 3.01-12.102zm-12.805-6.324c2.343-4.267 7.698-5.832 11.968-3.49 4.268 2.368 5.835 7.721 3.464 11.987-2.344 4.268-7.698 5.833-11.965 3.465-4.271-2.342-5.837-7.693-3.467-11.962z"/><path fill="#6DCFF6" d="M40.502 81.551c0-14.884 12.057-26.942 26.942-26.942 14.857 0 26.916 12.058 26.916 26.942 0 14.857-12.059 26.916-26.916 26.916-14.885 0-26.942-12.058-26.942-26.916z"/><path fill="#007DBE" d="M62.667 39.02c-.018-2.607 2.124-4.744 4.76-4.766 2.64.003 4.772 2.118 4.767 4.758.022 2.634-2.119 4.771-4.759 4.766-2.636.022-4.775-2.119-4.768-4.758zm-20.591 8.115c-1.341-2.271-.597-5.178 1.673-6.519 2.242-1.362 5.181-.598 6.518 1.646 1.339 2.271.595 5.178-1.647 6.514-2.268 1.367-5.205.631-6.544-1.641zm-13.838 17.267c-2.289-1.284-3.1-4.193-1.812-6.48 1.289-2.288 4.202-3.1 6.491-1.814 2.291 1.312 3.099 4.193 1.812 6.48-1.287 2.288-4.196 3.127-6.491 1.814zm-3.312 21.893c-2.627.055-4.777-2.109-4.776-4.727-.006-2.645 2.099-4.787 4.736-4.79 2.639-.001 4.778 2.109 4.781 4.753.006 2.648-2.13 4.768-4.741 4.764zm8.103 20.607c-2.249 1.312-5.179.604-6.528-1.692-1.337-2.242-.604-5.178 1.643-6.49 2.264-1.369 5.179-.604 6.544 1.636 1.339 2.238.605 5.178-1.659 6.546zm16.913 14.399c-1.613 2.078-4.617 2.445-6.69.828-2.071-1.621-2.466-4.604-.851-6.682 1.614-2.076 4.59-2.445 6.69-.826 2.071 1.565 2.468 4.604.851 6.68zm22.255 2.748c-.019 2.635-2.12 4.748-4.755 4.759-2.637.015-4.763-2.134-4.774-4.763-.009-2.631 2.121-4.748 4.755-4.762 2.638-.013 4.762 2.135 4.774 4.766zm20.579-8.086c1.325 2.27.611 5.193-1.663 6.494-2.261 1.353-5.184.635-6.537-1.627-1.327-2.268-.584-5.201 1.65-6.545 2.26-1.353 5.198-.583 6.55 1.678zm13.96-17.268c2.251 1.378 2.973 4.333 1.62 6.552-1.372 2.275-4.303 2.994-6.525 1.613-2.281-1.372-2.965-4.277-1.621-6.551 1.379-2.221 4.283-2.934 6.526-1.614zm3.195-21.913c2.637.002 4.769 2.104 4.763 4.734-.005 2.628-2.111 4.781-4.751 4.779-2.635-.004-4.775-2.16-4.765-4.76-.024-2.626 2.116-4.756 4.753-4.753zm-8.032-20.647c2.286-1.316 5.188-.516 6.5 1.744 1.314 2.286.542 5.188-1.743 6.504-2.258 1.311-5.185.542-6.5-1.746-1.312-2.259-.514-5.191 1.743-6.502zm-17.291-13.944c1.367-2.242 4.275-2.976 6.514-1.61 2.27 1.362 2.98 4.3 1.613 6.542-1.364 2.242-4.272 2.974-6.513 1.608-2.27-1.359-2.979-4.299-1.614-6.54z"/><path fill="#0068A6" d="M51.812 37.339c-.478-2.045.768-4.087 2.814-4.566 2.059-.516 4.113.757 4.593 2.803.478 2.044-.76 4.113-2.83 4.603-2.046.478-4.098-.795-4.577-2.84zm-20.053 13.873c-1.493-1.47-1.536-3.894-.066-5.386 1.459-1.515 3.883-1.561 5.374-.089 1.517 1.458 1.559 3.882.102 5.398-1.471 1.494-3.895 1.538-5.41.077zm-10.911 22.121c-2.06-.505-3.292-2.592-2.776-4.629.519-2.037 2.582-3.255 4.643-2.749 2.026.492 3.256 2.58 2.74 4.616-.52 2.038-2.57 3.281-4.607 2.762zm2.088 23.759c-1.999.639-4.147-.469-4.809-2.459-.637-2 .457-4.174 2.46-4.811 2.025-.65 4.171.456 4.81 2.459.636 2.001-.458 4.175-2.461 4.811zm14.212 20.098c-1.462 1.541-3.875 1.568-5.392.157-1.517-1.472-1.582-3.897-.123-5.38 1.462-1.539 3.851-1.617 5.392-.155 1.516 1.474 1.58 3.899.123 5.378zm21.321 11.81c-1.341 1.679-3.729 1.885-5.381.6-1.623-1.34-1.882-3.755-.542-5.379 1.311-1.623 3.728-1.885 5.351-.545 1.65 1.341 1.883 3.701.572 5.324zm24.382-3.794c.784 1.951-.149 4.196-2.096 4.979-1.978.737-4.201-.209-4.986-2.157-.784-1.949.178-4.146 2.125-4.934 1.975-.797 4.171.164 4.957 2.112zm20.343-13.313c1.461 1.501 1.448 3.9-.04 5.387-1.49 1.486-3.924 1.458-5.387-.042-1.462-1.5-1.446-3.899.044-5.387 1.485-1.489 3.923-1.46 5.383.042zm10.804-22.103c2.021.504 3.27 2.582 2.757 4.643-.542 2.011-2.622 3.257-4.667 2.703-2.023-.502-3.27-2.58-2.73-4.59.538-2.075 2.593-3.307 4.64-2.756zm2.735-21.142c.526 2.039-.671 4.137-2.697 4.69-2.039.525-4.136-.67-4.663-2.711-.553-2.027.671-4.134 2.709-4.662 2.026-.553 4.1.658 4.651 2.683zm-18.927-22.882c1.511-1.478 3.922-1.444 5.376.077 1.477 1.51 1.444 3.922-.067 5.4-1.52 1.454-3.932 1.418-5.386-.103-1.467-1.482-1.434-3.897.077-5.374zm-22.116-10.536c.697-1.981 2.875-3.05 4.847-2.378 2.009.688 3.066 2.839 2.38 4.847-.671 1.973-2.839 3.066-4.822 2.37-1.997-.663-3.066-2.84-2.405-4.839z"/><path fill="#00558F" d="M65.539 24.396c1.016-1.012 2.649-1.023 3.66-.006 1.041.993 1.049 2.652.032 3.662-1.02 1.039-2.677 1.021-3.689.03-1.013-1.018-1.021-2.676-.003-3.686zm-10.066 3.071c-.221-1.426.74-2.757 2.148-3 1.428-.219 2.758.739 2.999 2.15.222 1.428-.738 2.758-2.149 2.999-1.426.22-2.757-.738-2.998-2.149zm-44.472 46.479c-.95-1.073-.864-2.699.21-3.679 1.045-.952 2.701-.865 3.652.182.98 1.073.892 2.729-.181 3.68-1.046.979-2.702.892-3.681-.183zm-.429 9.754c-1.166-.877-1.402-2.5-.579-3.666.852-1.166 2.471-1.429 3.638-.552 1.165.824 1.429 2.446.578 3.61-.852 1.168-2.472 1.431-3.637.608zm1.296 9.608c-1.302-.56-1.888-2.146-1.3-3.427.587-1.332 2.12-1.887 3.452-1.328 1.307.613 1.889 2.146 1.303 3.479-.615 1.279-2.148 1.888-3.455 1.276zm47.656 44.762c-1.174.812-2.793.534-3.606-.639-.841-1.173-.534-2.792.639-3.604 1.202-.867 2.819-.533 3.632.639.813 1.172.535 2.792-.665 3.604zm9.789.493c-.988 1.064-2.645 1.083-3.682.096-1.038-.988-1.11-2.617-.122-3.684.988-1.01 2.644-1.081 3.682-.094 1.065.989 1.11 2.674.122 3.682zm9.68-1.258c-.76 1.189-2.37 1.611-3.59.826-1.217-.731-1.612-2.344-.851-3.532.758-1.247 2.37-1.614 3.587-.882 1.217.733 1.585 2.345.854 3.588zm44.838-48.034c.904 1.093.731 2.718-.361 3.623-1.12.899-2.772.78-3.676-.364-.903-1.094-.728-2.718.364-3.676 1.118-.902 2.773-.73 3.673.417zm.467-9.725c1.12.901 1.297 2.552.395 3.673-.926 1.095-2.55 1.271-3.673.371-1.121-.9-1.297-2.525-.397-3.646.928-1.121 2.553-1.298 3.675-.398zm-1.287-9.644c1.265.639 1.764 2.208 1.125 3.504-.667 1.266-2.236 1.764-3.502 1.124-1.294-.666-1.794-2.235-1.125-3.503.638-1.294 2.21-1.791 3.502-1.125zm-47.604-45.079c1.215-.761 2.8-.37 3.563.846.762 1.216.397 2.829-.819 3.59-1.216.762-2.828.37-3.592-.847-.761-1.216-.395-2.828.848-3.589zm-38.242 8.184c.372-1.385 1.78-2.213 3.164-1.839 1.398.337 2.237 1.769 1.863 3.153-.362 1.41-1.805 2.225-3.178 1.875-1.386-.374-2.224-1.804-1.849-3.189zm-7.172 7.702c-.906-1.124-.741-2.757.355-3.673 1.125-.905 2.757-.743 3.673.357.907 1.125.744 2.757-.357 3.672-1.122.907-2.754.745-3.671-.356zm-15.186 62.51c-1.36-.451-2.101-1.902-1.662-3.289.426-1.348 1.903-2.104 3.251-1.674 1.386.438 2.14 1.914 1.688 3.275-.415 1.373-1.892 2.128-3.277 1.688zm4.517 8.656c-1.448-.176-2.466-1.463-2.338-2.883.153-1.436 1.422-2.476 2.872-2.301 1.421.131 2.463 1.4 2.31 2.836-.152 1.436-1.423 2.477-2.844 2.348zm5.937 7.663c-1.407.172-2.709-.91-2.842-2.312-.159-1.446.889-2.693 2.321-2.878 1.438-.124 2.71.909 2.871 2.356.109 1.414-.912 2.711-2.35 2.834zm63.675 14.851c-.61 1.289-2.15 1.861-3.441 1.254-1.316-.594-1.862-2.148-1.254-3.439.605-1.354 2.172-1.873 3.463-1.269 1.291.607 1.861 2.149 1.232 3.454zm8.716-4.48c-.321 1.416-1.745 2.262-3.139 1.928-1.393-.336-2.272-1.709-1.951-3.127.349-1.369 1.746-2.26 3.14-1.926 1.417.32 2.3 1.756 1.95 3.125zm7.746-5.942c-.062 1.41-1.243 2.584-2.693 2.515-1.419-.022-2.569-1.22-2.506-2.63.032-1.459 1.242-2.584 2.663-2.561 1.419.024 2.546 1.235 2.536 2.676zm14.724-64.039c1.33.494 1.995 1.987 1.503 3.316-.518 1.34-2.007 2.066-3.363 1.528-1.33-.494-1.993-1.987-1.528-3.362.516-1.342 2.034-2.023 3.388-1.482zm-4.47-8.648c1.42.219 2.402 1.558 2.185 2.982-.253 1.411-1.57 2.378-2.993 2.163-1.422-.219-2.389-1.537-2.172-2.958.241-1.436 1.558-2.404 2.98-2.187zm-5.947-7.7c1.414-.082 2.633 1.027 2.729 2.468.057 1.43-1.051 2.648-2.467 2.728-1.454.073-2.672-1.035-2.729-2.468-.096-1.439 1.014-2.657 2.467-2.728zm-63.788-15.149c.67-1.267 2.238-1.723 3.507-1.053 1.269.669 1.761 2.249 1.09 3.517-.671 1.269-2.262 1.737-3.532 1.068-1.267-.672-1.758-2.251-1.065-3.532zm48.266 2.584c1.385-.374 2.809.428 3.18 1.812.41 1.378-.406 2.823-1.791 3.194-1.401.396-2.831-.443-3.218-1.806-.372-1.384.445-2.828 1.829-3.2zm-10.262-2.332c.517-1.347 2.012-2.026 3.355-1.538 1.348.519 2.026 2.01 1.536 3.356-.517 1.349-2.011 2.027-3.355 1.536-1.348-.517-2.027-2.009-1.536-3.354zm-61.681 18.263c-.292-1.403.59-2.772 2.01-3.089 1.379-.307 2.774.591 3.08 1.972.318 1.418-.581 2.812-1.984 3.105-1.396.328-2.79-.571-3.106-1.988zm-5.216 8.253c-.577-1.34.024-2.866 1.317-3.469 1.319-.589 2.854-.014 3.432 1.327.602 1.294.026 2.833-1.292 3.422-1.317.59-2.855.014-3.457-1.28zm-3.645 8.983c-.853-1.132-.573-2.801.572-3.619 1.172-.865 2.777-.585 3.656.561.83 1.181.573 2.801-.597 3.666-1.168.805-2.802.573-3.631-.608zm19.139 62.52c-1.421.119-2.688-.925-2.813-2.347-.147-1.437.924-2.688 2.345-2.812 1.473-.156 2.712.937 2.835 2.355.124 1.425-.923 2.694-2.367 2.804zm8.253 5.287c-1.387.436-2.834-.371-3.244-1.746-.41-1.373.337-2.822 1.724-3.258 1.359-.386 2.831.375 3.242 1.75.433 1.383-.365 2.869-1.722 3.254zm9.026 3.715c-1.25.654-2.856.221-3.526-1.064-.692-1.241-.235-2.836 1.016-3.489 1.277-.706 2.858-.226 3.551 1.015.692 1.239.21 2.823-1.041 3.538zm62.771-19.433c.242 1.397-.715 2.724-2.112 2.966-1.419.227-2.794-.697-3.011-2.142-.24-1.396.718-2.722 2.141-3.009 1.42-.227 2.771.745 2.982 2.185zm5.234-8.209c.524 1.339-.14 2.86-1.482 3.388-1.346.489-2.845-.162-3.373-1.502-.525-1.34.128-2.838 1.467-3.363 1.362-.514 2.861.14 3.388 1.477zm3.672-9.008c.78 1.182.435 2.793-.764 3.599-1.207.77-2.817.422-3.598-.764-.792-1.221-.446-2.83.763-3.6 1.197-.806 2.808-.456 3.599.765zm-18.937-62.767c1.431-.057 2.614 1.069 2.672 2.502.058 1.435-1.06 2.653-2.494 2.709-1.433.058-2.638-1.083-2.697-2.518-.056-1.433 1.062-2.651 2.519-2.693z"/><path fill="#004282" d="M55.585 96.814l.663-8.597.458-9.857.305-9.017v-3.02c3.652.039 7.505.045 11.5.045l4.274-.037 6.463-.008-.269 4.812-2.143-.098c-.583-.039-1.362-.047-2.392-.081-1.031-.005-2.098-.009-3.146-.009-2.331 0-3.819.001-4.495.005-.703.002-1.705.04-3.088.085l-.359 7.914c2.027.044 4.089.081 6.157.081 1.434 0 3.854-.045 7.233-.135-.101 1.35-.223 2.971-.313 4.829-3.961-.017-6.246-.024-6.829-.024-1.753 0-3.922.018-6.561.106l-.359 8.353 2.464.01c.718 0 2.343-.006 4.903-.019l4.849-.09 3.236-.17c-.14 1.715-.236 3.392-.314 4.921-3.864-.066-7.364-.072-10.468-.072l-7.331.01-4.438.063z"/><path fill="#007DBE" d="M153.863 88.924c-.184.893-.455 2.492-.815 4.75-1.612.354-2.963.554-4.104.709-1.086.103-2.178.181-3.27.181-1.967 0-3.715-.185-5.275-.608-1.532-.371-2.882-1.086-4.047-2.093-1.165-1.062-2.02-2.321-2.562-3.84-.544-1.462-.815-3.063-.815-4.694 0-1.836.316-3.625.949-5.335.634-1.71 1.53-3.135 2.693-4.219 1.163-1.083 2.469-1.851 3.947-2.329 1.477-.451 3.024-.677 4.598-.677 1.523 0 2.964.184 4.32.578 1.41.367 2.517.992 3.481 1.849.91.885 1.628 1.918 2.151 3.131.469 1.212.729 2.532.729 4.043 0 .684-.084 1.403-.195 2.158l-16.384.009c-.039.545-.045.989-.045 1.338 0 .989.177 1.896.502 2.713.353.873.848 1.531 1.51 2.144.643.556 1.441.996 2.356 1.269.912.271 1.759.435 2.647.435 1.06 0 2.15-.099 3.33-.349 1.237-.202 2.668-.626 4.299-1.163zm-14.42-8.997l10.459.036c0-.716-.062-1.25-.08-1.602-.071-.325-.166-.723-.282-1.168-.171-.417-.417-.814-.632-1.136-.27-.35-.609-.623-.969-.846-.358-.224-.793-.4-1.25-.501-.457-.128-.981-.18-1.521-.18-.577 0-1.192.093-1.791.278-.573.212-1.14.487-1.633.851-.466.363-.866.799-1.178 1.252-.311.453-.535.899-.676 1.31-.165.44-.305.99-.447 1.706zm19.808 14.098c.194-2.515.468-7.019.81-13.565.289-6.546.53-12.17.56-16.925 1.592.039 2.678.044 3.315.044.893 0 1.969-.005 3.229-.044l-.538 8.165-.795 18.185-.091 4.141c-1.188-.066-2.249-.072-3.075-.072-.273 0-1.432.005-3.415.071zm26.045-4.67c-.179.813-.509 2.336-.879 4.571-1.255.275-2.241.453-2.958.537-.717.029-1.361.1-1.988.1-1.089 0-2.074-.098-2.963-.342-.887-.189-1.605-.555-2.154-1.09-.549-.534-.974-1.158-1.162-1.873-.188-.658-.282-1.438-.282-2.174l.01-.797.179-3.154.528-9.294h-3.227c.084-.896.162-2.333.188-4.311h3.395c.09-.857.179-2.333.269-4.4l2.619-.502c.542-.096 1.616-.355 3.218-.753-.148 2.017-.174 3.902-.18 5.656h5.666c-.096 2.017-.17 3.454-.17 4.311h-5.674c-.342 6.062-.514 9.567-.514 10.542 0 .906.149 1.623.338 2.097.189.526.532.888.981 1.14.448.194.909.293 1.437.293.362 0 .733-.011 1.168-.088.379-.027 1.097-.2 2.155-.469zm2.992 4.67l.69-10.603.18-6.186c.012-1.261.018-2.523.018-3.818 0-.225-.006-.911-.018-2.115 1.361.04 2.363.045 3.058.045.731 0 1.729-.005 2.983-.045l-.1 3.146c.551-.807 1.067-1.396 1.443-1.797.375-.401.824-.725 1.348-1 .524-.302 1.068-.496 1.69-.663.567-.141 1.194-.225 1.825-.225.617 0 1.24.084 1.867.225 0 1.389.08 3.143.188 5.288-.891-.257-1.693-.358-2.411-.358-.829 0-1.62.133-2.264.371-.642.266-1.257.667-1.791 1.201-.536.508-.979 1.172-1.276 1.941-.33.627-.521 1.437-.628 2.428-.155.769-.247 2.106-.334 3.988-.086 1.884-.103 3.698-.103 5.503 0 .711.01 1.602.08 2.672-1.152-.066-2.159-.072-3.129-.072-.905.003-1.995.008-3.316.074zm17.782 0c.252-2.241.369-4.12.459-5.64.168-2.352.33-5.121.43-8.198.098-3.131.186-6.092.202-8.882 1.497.04 2.577.045 3.3.045.645 0 1.723-.005 3.236-.045-.188 2.599-.36 5.07-.52 7.412-.102 2.37-.191 5.065-.269 8.112-.022 2.994-.089 5.408-.089 7.196-1.352-.065-2.434-.071-3.245-.071-.739 0-1.906.005-3.504.071zm1.244-26.591l.09-3.541v-.717c1.351.039 2.437.045 3.26.045 1.167 0 2.245-.006 3.292-.045-.072.392-.085.804-.146 1.292l-.099 2.966c-1.099-.039-2.162-.045-3.137-.045-.918 0-2.006.006-3.26.045zm10.791 26.591c.353-3.401.627-7.183.881-11.399.201-4.219.359-7.993.371-11.32 1.356.04 2.44.045 3.254.045.982 0 2.041-.005 3.121-.045l-.26 3.809c.452-.667.885-1.17 1.24-1.568.303-.397.75-.765 1.291-1.129.54-.392 1.148-.672 1.773-.896.625-.225 1.277-.403 2.07-.537.737-.135 1.543-.216 2.416-.216 1.283 0 2.603.175 3.786.498 1.241.35 2.171.887 2.954 1.608.729.723 1.193 1.527 1.451 2.385.258.856.359 1.79.359 2.742 0 .404-.01 1.037-.082 1.928l-.453 9.778c-.022 1.351-.094 2.789-.1 4.319-1.172-.065-2.166-.071-3.039-.071-1.1 0-2.258.006-3.416.071.155-1.327.269-3.577.447-6.808.18-3.176.271-5.322.271-6.385 0-1.172-.184-2.116-.549-2.833-.363-.716-.916-1.257-1.715-1.622-.798-.364-1.619-.546-2.521-.546-.896 0-1.77.149-2.51.501-.795.353-1.439.849-1.987 1.487-.616.672-1.07 1.516-1.417 2.474-.354 1.065-.616 2.776-.734 5.19-.168 2.092-.27 4.955-.359 8.541-1.158-.066-2.223-.072-3.129-.072-.91 0-2.067.005-3.414.071zm41.613-23.258c1.71 0 3.392.265 4.935.766 1.601.53 2.941 1.292 4.024 2.286 1.085.995 1.899 2.241 2.442 3.684s.814 2.971.814 4.583c0 1.703-.277 3.328-.832 4.93-.611 1.548-1.432 2.957-2.519 4.064-1.144 1.162-2.5 2.047-4.128 2.6-1.682.605-3.408.884-5.284.884-1.714 0-3.341-.265-4.935-.794-1.537-.529-2.879-1.27-3.965-2.326-1.088-1.004-1.963-2.259-2.516-3.709-.551-1.507-.826-3.039-.826-4.652 0-1.625.209-3.193.742-4.679.531-1.485 1.342-2.796 2.434-3.961 1.144-1.165 2.574-2.064 4.287-2.697 1.718-.662 3.511-.979 5.327-.979zm0 4.616c-1.271 0-2.432.315-3.432.945-.998.63-1.786 1.573-2.255 2.828-.521 1.228-.784 2.608-.784 4.086 0 1.273.243 2.436.622 3.434.433 1.053 1.076 1.863 1.986 2.49.965.629 2.051.916 3.316.916 1.33 0 2.49-.347 3.422-.982.987-.637 1.77-1.609 2.238-2.868.521-1.258.783-2.621.783-4.146 0-1.22-.239-2.344-.609-3.37-.369-.998-1.005-1.807-1.964-2.428-.902-.622-1.993-.905-3.323-.905z"/></svg>